<?xml version="1.0" encoding="iso-8859-1"?>
<!-- Uploaded to: SVG Repo, www.svgrepo.com, Generator: SVG Repo Mixer Tools -->
<svg height="800px" width="800px" version="1.1" id="Layer_1" xmlns="http://www.w3.org/2000/svg" xmlns:xlink="http://www.w3.org/1999/xlink" 
	 viewBox="0 0 512 512" xml:space="preserve">
<path style="fill:#F37B2A;" d="M450.331,187.577v15.26c0,64.834-52.745,117.579-117.566,117.579
	c-64.834,0-117.579-52.745-117.579-117.579v-15.26c0-15.959,5.889-52.007,45.328-114.058c11.326-17.823,23.609-34.637,34.598-47.321
	c18.742-21.68,28.32-25.305,35.866-26.004l1.786-0.168L333.114,0l2.123,0.272c10.044,1.294,20.632,9.138,35.413,26.236
	c11.002,12.723,23.285,29.511,34.572,47.296C444.48,135.596,450.331,171.618,450.331,187.577z"/>
<path style="fill:#E56722;" d="M450.331,187.577v15.26c0,64.834-52.745,117.579-117.566,117.579V0.026L333.114,0l2.123,0.272
	c10.044,1.294,20.632,9.138,35.413,26.236c11.002,12.723,23.285,29.511,34.572,47.296
	C444.48,135.596,450.331,171.618,450.331,187.577z"/>
<path style="fill:#FFC033;" d="M321.591,279.528L94.811,506.307c-3.789,3.789-8.759,5.683-13.729,5.693
	c-4.961,0-9.93-1.895-13.729-5.693c-7.578-7.578-7.578-19.879,0-27.457l226.779-226.779c7.587-7.587,19.879-7.578,27.457,0
	C329.177,259.658,329.177,271.941,321.591,279.528z"/>
<path style="fill:#F9A926;" d="M321.591,279.528L94.811,506.307c-3.789,3.789-8.759,5.683-13.729,5.693
	c-4.961,0-9.93-1.895-13.729-5.693l254.236-254.236C329.177,259.658,329.177,271.941,321.591,279.528z"/>
<path style="fill:#A6673A;" d="M390.402,233.035c0,31.906-25.809,57.909-57.637,58.246h-0.608
	c-32.113,0-58.233-26.133-58.233-58.246s26.12-58.233,58.233-58.233h0.608C364.593,175.139,390.402,201.129,390.402,233.035z"/>
<path style="fill:#99522E;" d="M390.402,233.035c0,31.906-25.809,57.909-57.637,58.246V174.802
	C364.593,175.139,390.402,201.129,390.402,233.035z"/>
</svg>